# xmcd
#
# Track frame offsets: 
#        151
#        12976
#        26735
#        39698
#        56023
#        72134
#        81961
#        97288
#        114577
#        130962
#        141879
#        159504
#        168583
#        179500
#        189663
#        203682
#
# Disc length: 2860 seconds
#
# Revision: 0
# Processed by: cddbd v1.5.1PL2 Copyright (c) Steve Scherf et al.
# Submitted via: ExactAudioCopy v0.95b2
#
DISCID=ea0b2a10
DTITLE=Lynn Anderson - Rose Garden
DYEAR=2002
DGENRE=Country
TTITLE0=Stand By Your Man
TTITLE1=Rose Garden
TTITLE2=Top of the World
TTITLE3=I Was Country When Country Wasn't Cool
TTITLE4=You Need Me
TTITLE5=Snowbird
TTITLE6=Desperado
TTITLE7=Blue Bayou
TTITLE8=The Devil Went Down To Georgia
TTITLE9=Heartbreak Hotel
TTITLE10=Midnight Train To Georgia
TTITLE11=Rocky Top
TTITLE12=I've Been Everywhere
TTITLE13=What A Man My Man Is
TTITLE14=Two Doors Down
TTITLE15=Silver Threads and Golden Needles
EXTD=
EXTT0=
EXTT1=
EXTT2=
EXTT3=
EXTT4=
EXTT5=
EXTT6=
EXTT7=
EXTT8=
EXTT9=
EXTT10=
EXTT11=
EXTT12=
EXTT13=
EXTT14=
EXTT15=
PLAYORDER=
